M48
; DRILL file {KiCad 9.0.2} date 2025-07-03T12:00:16+0200
; FORMAT={-:-/ absolute / metric / decimal}
; #@! TF.CreationDate,2025-07-03T12:00:16+02:00
; #@! TF.GenerationSoftware,Kicad,Pcbnew,9.0.2
; #@! TF.FileFunction,Plated,1,4,PTH
FMAT,2
METRIC
; #@! TA.AperFunction,Plated,PTH,ViaDrill
T1C0.100
; #@! TA.AperFunction,Plated,PTH,ViaDrill
T2C0.300
; #@! TA.AperFunction,Plated,PTH,ComponentDrill
T3C1.000
%
G90
G05
T1
X100.1Y-75.79
X100.26Y-77.27
X102.2Y-73.4
X102.27Y-72.76
X102.38Y-74.91
X102.38Y-75.617
X102.42Y-76.33
X102.48Y-69.206
X102.48Y-69.878
X102.48Y-70.549
X102.48Y-71.22
X102.48Y-71.891
X104.777Y-71.057
X105.287Y-70.547
X105.802Y-70.032
X106.02Y-72.43
X106.15Y-71.02
X106.18Y-76.49
X106.351Y-69.483
X106.83Y-69.003
X107.227Y-68.553
X107.32Y-70.58
X108.458Y-70.078
X108.62Y-76.72
X108.7Y-75.93
X111.248Y-69.498
X114.35Y-69.03
X114.666Y-86.864
X117.163Y-68.663
X118.79Y-91.8
X166.0Y-72.83
X169.0Y-95.99
T2
X99.883Y-74.717
X99.91Y-73.43
X102.12Y-77.73
X105.01Y-75.82
X165.99Y-71.13
X165.99Y-81.12
X165.99Y-91.18
X166.0Y-76.12
X166.0Y-86.14
X166.96Y-110.67
X170.0Y-68.9
X173.0Y-63.0
X179.995Y-66.775
X180.0Y-71.12
X180.0Y-76.12
X180.0Y-95.14
X180.01Y-62.99
X180.01Y-65.21
X180.02Y-81.19
X180.03Y-91.14
X182.99Y-109.14
X183.01Y-110.69
T3
X120.49Y-52.0
X123.03Y-52.0
X125.57Y-52.0
X128.11Y-52.0
X130.65Y-52.0
X133.19Y-52.0
X135.73Y-52.0
X138.27Y-52.0
X140.81Y-52.0
X143.35Y-52.0
X145.89Y-52.0
X148.43Y-52.0
X150.97Y-52.0
X153.51Y-52.0
X187.9Y-74.92
X187.9Y-77.46
X187.9Y-80.0
X187.9Y-82.54
X187.9Y-85.08
X188.0Y-61.46
X188.0Y-64.0
X188.0Y-66.54
X188.0Y-97.0
X188.0Y-102.0
M30
