%TF.GenerationSoftware,KiCad,Pcbnew,9.0.2*%
%TF.CreationDate,2025-07-03T12:00:23+02:00*%
%TF.ProjectId,gp-bbq20kbd-breakout-board,67702d62-6271-4323-906b-62642d627265,rev?*%
%TF.SameCoordinates,Original*%
%TF.FileFunction,Copper,L1,Top*%
%TF.FilePolarity,Positive*%
%FSLAX46Y46*%
G04 Gerber Fmt 4.6, Leading zero omitted, Abs format (unit mm)*
G04 Created by KiCad (PCBNEW 9.0.2) date 2025-07-03 12:00:23*
%MOMM*%
%LPD*%
G01*
G04 APERTURE LIST*
G04 Aperture macros list*
%AMRoundRect*
0 Rectangle with rounded corners*
0 $1 Rounding radius*
0 $2 $3 $4 $5 $6 $7 $8 $9 X,Y pos of 4 corners*
0 Add a 4 corners polygon primitive as box body*
4,1,4,$2,$3,$4,$5,$6,$7,$8,$9,$2,$3,0*
0 Add four circle primitives for the rounded corners*
1,1,$1+$1,$2,$3*
1,1,$1+$1,$4,$5*
1,1,$1+$1,$6,$7*
1,1,$1+$1,$8,$9*
0 Add four rect primitives between the rounded corners*
20,1,$1+$1,$2,$3,$4,$5,0*
20,1,$1+$1,$4,$5,$6,$7,0*
20,1,$1+$1,$6,$7,$8,$9,0*
20,1,$1+$1,$8,$9,$2,$3,0*%
G04 Aperture macros list end*
%TA.AperFunction,SMDPad,CuDef*%
%ADD10RoundRect,0.150000X-0.587500X-0.150000X0.587500X-0.150000X0.587500X0.150000X-0.587500X0.150000X0*%
%TD*%
%TA.AperFunction,SMDPad,CuDef*%
%ADD11RoundRect,0.150000X0.512500X0.150000X-0.512500X0.150000X-0.512500X-0.150000X0.512500X-0.150000X0*%
%TD*%
%TA.AperFunction,SMDPad,CuDef*%
%ADD12RoundRect,0.225000X-0.250000X0.225000X-0.250000X-0.225000X0.250000X-0.225000X0.250000X0.225000X0*%
%TD*%
%TA.AperFunction,SMDPad,CuDef*%
%ADD13RoundRect,0.200000X0.275000X-0.200000X0.275000X0.200000X-0.275000X0.200000X-0.275000X-0.200000X0*%
%TD*%
%TA.AperFunction,SMDPad,CuDef*%
%ADD14R,0.431800X0.254000*%
%TD*%
%TA.AperFunction,SMDPad,CuDef*%
%ADD15R,0.330200X0.762000*%
%TD*%
%TA.AperFunction,ComponentPad*%
%ADD16R,1.700000X1.700000*%
%TD*%
%TA.AperFunction,SMDPad,CuDef*%
%ADD17RoundRect,0.218750X-0.218750X-0.256250X0.218750X-0.256250X0.218750X0.256250X-0.218750X0.256250X0*%
%TD*%
%TA.AperFunction,SMDPad,CuDef*%
%ADD18C,1.000000*%
%TD*%
%TA.AperFunction,ComponentPad*%
%ADD19C,1.700000*%
%TD*%
%TA.AperFunction,SMDPad,CuDef*%
%ADD20RoundRect,0.225000X0.250000X-0.225000X0.250000X0.225000X-0.250000X0.225000X-0.250000X-0.225000X0*%
%TD*%
%TA.AperFunction,SMDPad,CuDef*%
%ADD21RoundRect,0.200000X-0.275000X0.200000X-0.275000X-0.200000X0.275000X-0.200000X0.275000X0.200000X0*%
%TD*%
%TA.AperFunction,SMDPad,CuDef*%
%ADD22RoundRect,0.150000X0.587500X0.150000X-0.587500X0.150000X-0.587500X-0.150000X0.587500X-0.150000X0*%
%TD*%
%TA.AperFunction,ViaPad*%
%ADD23C,0.500000*%
%TD*%
%TA.AperFunction,ViaPad*%
%ADD24C,0.400000*%
%TD*%
%TA.AperFunction,Conductor*%
%ADD25C,0.250000*%
%TD*%
%TA.AperFunction,Conductor*%
%ADD26C,0.200000*%
%TD*%
G04 APERTURE END LIST*
D10*
%TO.P,Q3,1,G*%
%TO.N,+1V8*%
X171062500Y-81050000D03*
%TO.P,Q3,2,S*%
%TO.N,/bbq20kbd_connector/TP_SCL_1V8*%
X171062500Y-82950000D03*
%TO.P,Q3,3,D*%
%TO.N,/TP_SCL*%
X172937500Y-82000000D03*
%TD*%
D11*
%TO.P,U3,1,IN*%
%TO.N,+3V3*%
X175137500Y-110862500D03*
%TO.P,U3,2,GND*%
%TO.N,GND*%
X175137500Y-109912500D03*
%TO.P,U3,3,EN*%
%TO.N,+3V3*%
X175137500Y-108962500D03*
%TO.P,U3,4,NR*%
%TO.N,unconnected-(U3-NR-Pad4)*%
X172862500Y-108962500D03*
%TO.P,U3,5,OUT*%
%TO.N,+2V8*%
X172862500Y-110862500D03*
%TD*%
D12*
%TO.P,C3,1*%
%TO.N,+3V3*%
X177000000Y-65225000D03*
%TO.P,C3,2*%
%TO.N,GND*%
X177000000Y-66775000D03*
%TD*%
D13*
%TO.P,R9,1*%
%TO.N,/TP_RESET*%
X175000000Y-92825000D03*
%TO.P,R9,2*%
%TO.N,+3V3*%
X175000000Y-91175000D03*
%TD*%
%TO.P,R6,1*%
%TO.N,/bbq20kbd_connector/TP_SCL_1V8*%
X169000000Y-82775000D03*
%TO.P,R6,2*%
%TO.N,+1V8*%
X169000000Y-81125000D03*
%TD*%
%TO.P,R7,1*%
%TO.N,/TP_MOTION*%
X175000000Y-87950000D03*
%TO.P,R7,2*%
%TO.N,+3V3*%
X175000000Y-86300000D03*
%TD*%
%TO.P,R3,1*%
%TO.N,/TP_SDA*%
X175000000Y-77775000D03*
%TO.P,R3,2*%
%TO.N,+3V3*%
X175000000Y-76125000D03*
%TD*%
D10*
%TO.P,Q4,1,G*%
%TO.N,+1V8*%
X171062500Y-86000000D03*
%TO.P,Q4,2,S*%
%TO.N,/bbq20kbd_connector/TP_MOTION_1V8*%
X171062500Y-87900000D03*
%TO.P,Q4,3,D*%
%TO.N,/TP_MOTION*%
X172937500Y-86950000D03*
%TD*%
D14*
%TO.P,J8,1,GND*%
%TO.N,GND*%
X101116200Y-77300000D03*
%TO.P,J8,2,~{TP_RESET}*%
%TO.N,/bbq20kbd_connector/TP_RESET_1V8*%
X101116200Y-76899998D03*
%TO.P,J8,3,TP_MOTION*%
%TO.N,/bbq20kbd_connector/TP_MOTION_1V8*%
X101116200Y-76499999D03*
%TO.P,J8,4,TP_SCL*%
%TO.N,/bbq20kbd_connector/TP_SCL_1V8*%
X101116200Y-76100000D03*
%TO.P,J8,5,TP_SCA*%
%TO.N,/bbq20kbd_connector/TP_SDA_1V8*%
X101116200Y-75700001D03*
%TO.P,J8,6,~{TP_SHUTDOWN}*%
%TO.N,/bbq20kbd_connector/TP_SHUTDOWN_1V8*%
X101116200Y-75299999D03*
%TO.P,J8,7,N.C*%
%TO.N,unconnected-(J8-N.C-Pad7)*%
X101116200Y-74900000D03*
%TO.P,J8,8,VDD_KBD*%
%TO.N,+2V8*%
X101116200Y-74500001D03*
%TO.P,J8,9,N.C*%
%TO.N,unconnected-(J8-N.C-Pad9)*%
X101116200Y-74099999D03*
%TO.P,J8,10,VDD_TP*%
%TO.N,+1V8*%
X101116200Y-73700000D03*
%TO.P,J8,11,N.C*%
%TO.N,unconnected-(J8-N.C-Pad11)*%
X101116200Y-73300000D03*
%TO.P,J8,12,KBD_COL0*%
%TO.N,/KBD_COL0*%
X101116200Y-72900001D03*
%TO.P,J8,13,KBD_COL1*%
%TO.N,/KBD_COL1*%
X101116200Y-72499999D03*
%TO.P,J8,14,KBD_COL2*%
%TO.N,/KBD_COL2*%
X101116200Y-72100000D03*
%TO.P,J8,15,KBD_COL3*%
%TO.N,/KBD_COL3*%
X101116200Y-71700001D03*
%TO.P,J8,16,KBD_COL4*%
%TO.N,/KBD_COL4*%
X101116200Y-71299999D03*
%TO.P,J8,17,KBD_COL5*%
%TO.N,/KBD_COL5*%
X101116200Y-70900000D03*
%TO.P,J8,18,KBD_COL6*%
%TO.N,/KBD_COL6*%
X101116200Y-70500001D03*
%TO.P,J8,19,N.C*%
%TO.N,unconnected-(J8-N.C-Pad19)*%
X101116200Y-70099999D03*
%TO.P,J8,20,N.C*%
%TO.N,unconnected-(J8-N.C-Pad20)*%
X101116200Y-69700000D03*
%TO.P,J8,21,N.C*%
%TO.N,unconnected-(J8-N.C-Pad21)*%
X103296200Y-77300000D03*
%TO.P,J8,22,AGND*%
%TO.N,GND*%
X103296200Y-76899998D03*
%TO.P,J8,23,MIC*%
%TO.N,/MIC*%
X103296200Y-76499999D03*
%TO.P,J8,24,VDD_MIC*%
%TO.N,+3V3*%
X103296200Y-76100000D03*
%TO.P,J8,25,N.C*%
%TO.N,unconnected-(J8-N.C-Pad25)*%
X103296200Y-75700001D03*
%TO.P,J8,26,KBD_ROW6*%
%TO.N,/KBD_ROW6*%
X103296200Y-75299999D03*
%TO.P,J8,27,KBD_ROW5*%
%TO.N,/KBD_ROW5*%
X103296200Y-74900000D03*
%TO.P,J8,28,KBD_ROW4*%
%TO.N,/KBD_ROW4*%
X103296200Y-74500001D03*
%TO.P,J8,29,KBD_ROW3*%
%TO.N,/KBD_ROW3*%
X103296200Y-74099999D03*
%TO.P,J8,30,KBD_ROW2*%
%TO.N,/KBD_ROW2*%
X103296200Y-73700000D03*
%TO.P,J8,31,KBD_ROW1*%
%TO.N,/KBD_ROW1*%
X103296200Y-73300000D03*
%TO.P,J8,32,KBD_ROW0*%
%TO.N,/KBD_ROW0*%
X103296200Y-72900001D03*
%TO.P,J8,33,BKL*%
%TO.N,/bbq20kbd_connector/BKL*%
X103296200Y-72499999D03*
%TO.P,J8,34,VDD_BKL*%
%TO.N,+3V3*%
X103296200Y-72100000D03*
%TO.P,J8,35,N.C*%
%TO.N,unconnected-(J8-N.C-Pad35)*%
X103296200Y-71700001D03*
%TO.P,J8,36,N.C*%
%TO.N,unconnected-(J8-N.C-Pad36)*%
X103296200Y-71299999D03*
%TO.P,J8,37,N.C*%
%TO.N,unconnected-(J8-N.C-Pad37)*%
X103296200Y-70900000D03*
%TO.P,J8,38,N.C*%
%TO.N,unconnected-(J8-N.C-Pad38)*%
X103296200Y-70500001D03*
%TO.P,J8,39,N.C*%
%TO.N,unconnected-(J8-N.C-Pad39)*%
X103296200Y-70099999D03*
%TO.P,J8,40,N.C*%
%TO.N,unconnected-(J8-N.C-Pad40)*%
X103296200Y-69700000D03*
D15*
%TO.P,J8,41,N.C*%
%TO.N,unconnected-(J8-N.C-Pad41)*%
X103131199Y-78510000D03*
%TO.P,J8,42,N.C*%
%TO.N,unconnected-(J8-N.C-Pad42)*%
X103131199Y-68490000D03*
%TO.P,J8,43,N.C*%
%TO.N,unconnected-(J8-N.C-Pad43)*%
X101281200Y-78510000D03*
%TO.P,J8,44,N.C*%
%TO.N,unconnected-(J8-N.C-Pad44)*%
X101281200Y-68490000D03*
%TD*%
D16*
%TO.P,J5,1,Pin_1*%
%TO.N,/KBD_BKL*%
X188000000Y-97000000D03*
%TD*%
D17*
%TO.P,D1,1,K*%
%TO.N,GND*%
X174212500Y-55000000D03*
%TO.P,D1,2,A*%
%TO.N,+3V3*%
X175787500Y-55000000D03*
%TD*%
D13*
%TO.P,R2,1*%
%TO.N,/bbq20kbd_connector/TP_SHUTDOWN_1V8*%
X169000000Y-72775000D03*
%TO.P,R2,2*%
%TO.N,+1V8*%
X169000000Y-71125000D03*
%TD*%
D10*
%TO.P,Q2,1,G*%
%TO.N,+1V8*%
X171062500Y-76000000D03*
%TO.P,Q2,2,S*%
%TO.N,/bbq20kbd_connector/TP_SDA_1V8*%
X171062500Y-77900000D03*
%TO.P,Q2,3,D*%
%TO.N,/TP_SDA*%
X172937500Y-76950000D03*
%TD*%
D18*
%TO.P,TP3,1,1*%
%TO.N,+2V8*%
X170000000Y-115000000D03*
%TD*%
%TO.P,TP1,1,1*%
%TO.N,+5V*%
X180000000Y-55000000D03*
%TD*%
D16*
%TO.P,J3,1,Pin_1*%
%TO.N,/TP_SHUTDOWN*%
X187900000Y-74920000D03*
D19*
%TO.P,J3,2,Pin_2*%
%TO.N,/TP_SDA*%
X187900000Y-77460000D03*
%TO.P,J3,3,Pin_3*%
%TO.N,/TP_SCL*%
X187900000Y-80000000D03*
%TO.P,J3,4,Pin_4*%
%TO.N,/TP_MOTION*%
X187900000Y-82540000D03*
%TO.P,J3,5,Pin_5*%
%TO.N,/TP_RESET*%
X187900000Y-85080000D03*
%TD*%
D10*
%TO.P,Q1,1,G*%
%TO.N,+1V8*%
X171062500Y-71000000D03*
%TO.P,Q1,2,S*%
%TO.N,/bbq20kbd_connector/TP_SHUTDOWN_1V8*%
X171062500Y-72900000D03*
%TO.P,Q1,3,D*%
%TO.N,/TP_SHUTDOWN*%
X172937500Y-71950000D03*
%TD*%
D20*
%TO.P,C6,1*%
%TO.N,+2V8*%
X170500000Y-110687500D03*
%TO.P,C6,2*%
%TO.N,GND*%
X170500000Y-109137500D03*
%TD*%
D16*
%TO.P,J1,1,Pin_1*%
%TO.N,+5V*%
X188000000Y-61460000D03*
D19*
%TO.P,J1,2,Pin_2*%
%TO.N,+3V3*%
X188000000Y-64000000D03*
%TO.P,J1,3,Pin_3*%
%TO.N,GND*%
X188000000Y-66540000D03*
%TD*%
D10*
%TO.P,Q5,1,G*%
%TO.N,+1V8*%
X171000000Y-91000000D03*
%TO.P,Q5,2,S*%
%TO.N,/bbq20kbd_connector/TP_RESET_1V8*%
X171000000Y-92900000D03*
%TO.P,Q5,3,D*%
%TO.N,/TP_RESET*%
X172875000Y-91950000D03*
%TD*%
D13*
%TO.P,R4,1*%
%TO.N,/bbq20kbd_connector/TP_SDA_1V8*%
X169000000Y-77775000D03*
%TO.P,R4,2*%
%TO.N,+1V8*%
X169000000Y-76125000D03*
%TD*%
D20*
%TO.P,C4,1*%
%TO.N,+1V8*%
X171000000Y-66725000D03*
%TO.P,C4,2*%
%TO.N,GND*%
X171000000Y-65175000D03*
%TD*%
D13*
%TO.P,R10,1*%
%TO.N,/bbq20kbd_connector/TP_RESET_1V8*%
X169000000Y-92825000D03*
%TO.P,R10,2*%
%TO.N,+1V8*%
X169000000Y-91175000D03*
%TD*%
%TO.P,R5,1*%
%TO.N,/TP_SCL*%
X175000000Y-82825000D03*
%TO.P,R5,2*%
%TO.N,+3V3*%
X175000000Y-81175000D03*
%TD*%
D11*
%TO.P,U1,1,IN*%
%TO.N,+5V*%
X177637500Y-60950000D03*
%TO.P,U1,2,GND*%
%TO.N,GND*%
X177637500Y-60000000D03*
%TO.P,U1,3,EN*%
%TO.N,+5V*%
X177637500Y-59050000D03*
%TO.P,U1,4,NR*%
%TO.N,unconnected-(U1-NR-Pad4)*%
X175362500Y-59050000D03*
%TO.P,U1,5,OUT*%
%TO.N,+3V3*%
X175362500Y-60950000D03*
%TD*%
D16*
%TO.P,J2,1,Pin_1*%
%TO.N,/KBD_COL0*%
X120490000Y-52000000D03*
D19*
%TO.P,J2,2,Pin_2*%
%TO.N,/KBD_COL1*%
X123030000Y-52000000D03*
%TO.P,J2,3,Pin_3*%
%TO.N,/KBD_COL2*%
X125570000Y-52000000D03*
%TO.P,J2,4,Pin_4*%
%TO.N,/KBD_COL3*%
X128110000Y-52000000D03*
%TO.P,J2,5,Pin_5*%
%TO.N,/KBD_COL4*%
X130650000Y-52000000D03*
%TO.P,J2,6,Pin_6*%
%TO.N,/KBD_COL5*%
X133190000Y-52000000D03*
%TO.P,J2,7,Pin_7*%
%TO.N,/KBD_COL6*%
X135730000Y-52000000D03*
%TO.P,J2,8,Pin_8*%
%TO.N,/KBD_ROW0*%
X138270000Y-52000000D03*
%TO.P,J2,9,Pin_9*%
%TO.N,/KBD_ROW1*%
X140810000Y-52000000D03*
%TO.P,J2,10,Pin_10*%
%TO.N,/KBD_ROW2*%
X143350000Y-52000000D03*
%TO.P,J2,11,Pin_11*%
%TO.N,/KBD_ROW3*%
X145890000Y-52000000D03*
%TO.P,J2,12,Pin_12*%
%TO.N,/KBD_ROW4*%
X148430000Y-52000000D03*
%TO.P,J2,13,Pin_13*%
%TO.N,/KBD_ROW5*%
X150970000Y-52000000D03*
%TO.P,J2,14,Pin_14*%
%TO.N,/KBD_ROW6*%
X153510000Y-52000000D03*
%TD*%
D18*
%TO.P,TP5,1,1*%
%TO.N,GND*%
X170000000Y-55000000D03*
%TD*%
D20*
%TO.P,C5,1*%
%TO.N,GND*%
X177500000Y-110687500D03*
%TO.P,C5,2*%
%TO.N,+3V3*%
X177500000Y-109137500D03*
%TD*%
D11*
%TO.P,U2,1,IN*%
%TO.N,+3V3*%
X175137500Y-66950000D03*
%TO.P,U2,2,GND*%
%TO.N,GND*%
X175137500Y-66000000D03*
%TO.P,U2,3,EN*%
%TO.N,+3V3*%
X175137500Y-65050000D03*
%TO.P,U2,4,NR*%
%TO.N,unconnected-(U2-NR-Pad4)*%
X172862500Y-65050000D03*
%TO.P,U2,5,OUT*%
%TO.N,+1V8*%
X172862500Y-66950000D03*
%TD*%
D18*
%TO.P,TP4,1,1*%
%TO.N,+1V8*%
X167000000Y-68000000D03*
%TD*%
D16*
%TO.P,J4,1,Pin_1*%
%TO.N,/MIC*%
X188000000Y-102000000D03*
%TD*%
D21*
%TO.P,R11,1*%
%TO.N,GND*%
X175000000Y-95175000D03*
%TO.P,R11,2*%
%TO.N,/KBD_BKL*%
X175000000Y-96825000D03*
%TD*%
D13*
%TO.P,R1,1*%
%TO.N,/TP_SHUTDOWN*%
X175000000Y-72775000D03*
%TO.P,R1,2*%
%TO.N,+3V3*%
X175000000Y-71125000D03*
%TD*%
D12*
%TO.P,C1,1*%
%TO.N,+5V*%
X180000000Y-59225000D03*
%TO.P,C1,2*%
%TO.N,GND*%
X180000000Y-60775000D03*
%TD*%
D22*
%TO.P,Q6,1,G*%
%TO.N,/KBD_BKL*%
X172937500Y-96950000D03*
%TO.P,Q6,2,S*%
%TO.N,GND*%
X172937500Y-95050000D03*
%TO.P,Q6,3,D*%
%TO.N,/bbq20kbd_connector/BKL*%
X171062500Y-96000000D03*
%TD*%
D18*
%TO.P,TP2,1,1*%
%TO.N,+3V3*%
X169000000Y-60000000D03*
%TD*%
D20*
%TO.P,C2,1*%
%TO.N,+3V3*%
X173000000Y-60775000D03*
%TO.P,C2,2*%
%TO.N,GND*%
X173000000Y-59225000D03*
%TD*%
D13*
%TO.P,R8,1*%
%TO.N,/bbq20kbd_connector/TP_MOTION_1V8*%
X169000000Y-87775000D03*
%TO.P,R8,2*%
%TO.N,+1V8*%
X169000000Y-86125000D03*
%TD*%
D23*
%TO.N,GND*%
X183010000Y-110690000D03*
X180000000Y-95140000D03*
X102120000Y-77730000D03*
X179995000Y-66775000D03*
X180010000Y-62990000D03*
%TO.N,+3V3*%
X180000000Y-76120000D03*
X180000000Y-71120000D03*
X180020000Y-81190000D03*
X180030000Y-91140000D03*
X105010000Y-75820000D03*
X180000000Y-86300000D03*
X173000000Y-63000000D03*
X175790000Y-57010000D03*
X180010000Y-65210000D03*
X182990000Y-109140000D03*
%TO.N,+1V8*%
X165990000Y-71130000D03*
X165990000Y-81120000D03*
X170000000Y-68900000D03*
X165990000Y-91180000D03*
X166000000Y-86140000D03*
X166000000Y-76120000D03*
X99910000Y-73430000D03*
%TO.N,+2V8*%
X166960000Y-110670000D03*
X99883412Y-74716588D03*
D24*
%TO.N,/KBD_COL6*%
X107226801Y-68553152D03*
X102480000Y-69206317D03*
X117163199Y-68663199D03*
%TO.N,/KBD_COL2*%
X102480000Y-71891228D03*
X107320000Y-70580000D03*
X105286801Y-70546801D03*
%TO.N,/KBD_COL3*%
X102480000Y-71220000D03*
X105801801Y-70031801D03*
X108458199Y-70078199D03*
%TO.N,/KBD_COL1*%
X104776801Y-71056801D03*
X102270000Y-72760000D03*
X106150000Y-71020000D03*
%TO.N,/KBD_COL4*%
X106350901Y-69482702D03*
X111248199Y-69498199D03*
X102480000Y-70548772D03*
%TO.N,/KBD_COL0*%
X102200000Y-73400000D03*
%TO.N,/KBD_COL5*%
X114350000Y-69030000D03*
X102480000Y-69877545D03*
X106830450Y-69003152D03*
%TO.N,/bbq20kbd_connector/TP_SHUTDOWN_1V8*%
X100100000Y-75790000D03*
X166000000Y-72830000D03*
%TO.N,/bbq20kbd_connector/TP_SCL_1V8*%
X102380301Y-75617106D03*
X108620000Y-76720000D03*
%TO.N,/MIC*%
X106180000Y-76490000D03*
%TO.N,/bbq20kbd_connector/TP_SDA_1V8*%
X108700000Y-75930000D03*
X102380300Y-74910000D03*
%TO.N,/bbq20kbd_connector/TP_MOTION_1V8*%
X114666446Y-86863554D03*
X102420000Y-76330000D03*
%TO.N,/bbq20kbd_connector/TP_RESET_1V8*%
X100260000Y-77270000D03*
X118790000Y-91800000D03*
%TO.N,/bbq20kbd_connector/BKL*%
X169000000Y-95990000D03*
X106020000Y-72430000D03*
%TD*%
D25*
%TO.N,+5V*%
X177812500Y-59225000D02*
X177637500Y-59050000D01*
X188000000Y-61460000D02*
X182235000Y-61460000D01*
X182235000Y-61460000D02*
X180000000Y-59225000D01*
X178275000Y-60950000D02*
X180000000Y-59225000D01*
X180000000Y-59225000D02*
X177812500Y-59225000D01*
X180000000Y-59225000D02*
X180000000Y-55000000D01*
X177637500Y-60950000D02*
X178275000Y-60950000D01*
%TO.N,GND*%
X175137500Y-66000000D02*
X171825000Y-66000000D01*
X174475001Y-66000000D02*
X174199000Y-66276001D01*
X171825000Y-66000000D02*
X171000000Y-65175000D01*
X180000000Y-60775000D02*
X180000000Y-62980000D01*
X174199000Y-67280612D02*
X174918388Y-68000000D01*
D26*
X101690000Y-77300000D02*
X102120000Y-77730000D01*
D25*
X177100000Y-60000000D02*
X177637500Y-60000000D01*
X176699000Y-61280612D02*
X176699000Y-60401000D01*
X177637500Y-60000000D02*
X173775000Y-60000000D01*
X175000000Y-95175000D02*
X179965000Y-95175000D01*
X177500000Y-110687500D02*
X176749000Y-111438500D01*
X179249000Y-61526000D02*
X176944388Y-61526000D01*
X175000000Y-95175000D02*
X173062500Y-95175000D01*
X174475001Y-109912500D02*
X175137500Y-109912500D01*
X170000000Y-55000000D02*
X171650000Y-55000000D01*
X180000000Y-60775000D02*
X179249000Y-61526000D01*
D26*
X102120000Y-77730000D02*
X102230000Y-77730000D01*
D25*
X176699000Y-60401000D02*
X177100000Y-60000000D01*
X173000000Y-56212500D02*
X174212500Y-55000000D01*
X176749000Y-111438500D02*
X174444388Y-111438500D01*
X180000000Y-66780000D02*
X179995000Y-66775000D01*
D26*
X103060002Y-76899998D02*
X103296200Y-76899998D01*
D25*
X173000000Y-59225000D02*
X173000000Y-56350000D01*
X170500000Y-109137500D02*
X171275000Y-109912500D01*
X173775000Y-60000000D02*
X173000000Y-59225000D01*
D26*
X101116200Y-77300000D02*
X101690000Y-77300000D01*
D25*
X183007500Y-110687500D02*
X183010000Y-110690000D01*
X174918388Y-68000000D02*
X175775000Y-68000000D01*
X174199000Y-110188501D02*
X174475001Y-109912500D01*
X179965000Y-95175000D02*
X180000000Y-95140000D01*
X176944388Y-61526000D02*
X176699000Y-61280612D01*
X174199000Y-66276001D02*
X174199000Y-67280612D01*
X173062500Y-95175000D02*
X172937500Y-95050000D01*
X171275000Y-109912500D02*
X175137500Y-109912500D01*
X175775000Y-68000000D02*
X177000000Y-66775000D01*
X173000000Y-56350000D02*
X173000000Y-56212500D01*
D26*
X102230000Y-77730000D02*
X103060002Y-76899998D01*
D25*
X177000000Y-66775000D02*
X179995000Y-66775000D01*
X174199000Y-111193112D02*
X174199000Y-110188501D01*
X175137500Y-66000000D02*
X174475001Y-66000000D01*
X180000000Y-62980000D02*
X180010000Y-62990000D01*
X174444388Y-111438500D02*
X174199000Y-111193112D01*
X171650000Y-55000000D02*
X173000000Y-56350000D01*
X177500000Y-110687500D02*
X183007500Y-110687500D01*
D26*
%TO.N,+3V3*%
X102880300Y-76100000D02*
X102880300Y-72170999D01*
X104981479Y-75820000D02*
X105010000Y-75820000D01*
D25*
X173175000Y-60950000D02*
X173000000Y-60775000D01*
X175312500Y-65225000D02*
X175137500Y-65050000D01*
X175137500Y-110862500D02*
X175799999Y-110862500D01*
D26*
X103296200Y-76100000D02*
X104701479Y-76100000D01*
D25*
X173000000Y-60775000D02*
X169775000Y-60775000D01*
X175137500Y-108962500D02*
X177325000Y-108962500D01*
X169775000Y-60775000D02*
X169000000Y-60000000D01*
X175000000Y-86300000D02*
X180000000Y-86300000D01*
X179995000Y-76125000D02*
X180000000Y-76120000D01*
X175137500Y-66950000D02*
X175456612Y-66950000D01*
X177500000Y-109162499D02*
X177500000Y-109137500D01*
X177325000Y-108962500D02*
X177500000Y-109137500D01*
D26*
X102880300Y-72170999D02*
X102951299Y-72100000D01*
X103296200Y-76100000D02*
X102880300Y-76100000D01*
D25*
X177000000Y-65225000D02*
X175312500Y-65225000D01*
X177502500Y-109140000D02*
X182990000Y-109140000D01*
X175799999Y-110862500D02*
X177500000Y-109162499D01*
D26*
X104701479Y-76100000D02*
X104981479Y-75820000D01*
D25*
X177000000Y-65225000D02*
X179995000Y-65225000D01*
X177000000Y-65406612D02*
X177000000Y-65225000D01*
X179995000Y-71125000D02*
X180000000Y-71120000D01*
X175787500Y-57007500D02*
X175790000Y-57010000D01*
D26*
X102951299Y-72100000D02*
X103296200Y-72100000D01*
D25*
X175000000Y-81175000D02*
X180005000Y-81175000D01*
X175362500Y-60950000D02*
X173175000Y-60950000D01*
X175000000Y-91175000D02*
X179995000Y-91175000D01*
X175000000Y-76125000D02*
X179995000Y-76125000D01*
X177500000Y-109137500D02*
X177502500Y-109140000D01*
X179995000Y-65225000D02*
X180010000Y-65210000D01*
X175456612Y-66950000D02*
X177000000Y-65406612D01*
X180005000Y-81175000D02*
X180020000Y-81190000D01*
X173000000Y-60775000D02*
X173000000Y-63000000D01*
X179995000Y-91175000D02*
X180030000Y-91140000D01*
X175787500Y-55000000D02*
X175787500Y-57007500D01*
X175000000Y-71125000D02*
X179995000Y-71125000D01*
%TO.N,+1V8*%
X169000000Y-86125000D02*
X166015000Y-86125000D01*
X169000000Y-91175000D02*
X165995000Y-91175000D01*
X165995000Y-91175000D02*
X165990000Y-91180000D01*
X168275000Y-66725000D02*
X167000000Y-68000000D01*
X171000000Y-66725000D02*
X168275000Y-66725000D01*
X169000000Y-71125000D02*
X170937500Y-71125000D01*
X167015000Y-76125000D02*
X169000000Y-76125000D01*
X166995000Y-81125000D02*
X169000000Y-81125000D01*
X171062500Y-76000000D02*
X169125000Y-76000000D01*
X169075000Y-81050000D02*
X169000000Y-81125000D01*
D26*
X101116200Y-73700000D02*
X100180000Y-73700000D01*
D25*
X167010000Y-71130000D02*
X167015000Y-71125000D01*
D26*
X100180000Y-73700000D02*
X99910000Y-73430000D01*
D25*
X171000000Y-67900000D02*
X170000000Y-68900000D01*
X171000000Y-91000000D02*
X169175000Y-91000000D01*
X167015000Y-71125000D02*
X169000000Y-71125000D01*
X166015000Y-86125000D02*
X166000000Y-86140000D01*
X171062500Y-81050000D02*
X169075000Y-81050000D01*
X169175000Y-91000000D02*
X169000000Y-91175000D01*
X172862500Y-66950000D02*
X171225000Y-66950000D01*
X171225000Y-66950000D02*
X171000000Y-66725000D01*
X165990000Y-71130000D02*
X167010000Y-71130000D01*
X169125000Y-76000000D02*
X169000000Y-76125000D01*
X167010000Y-76120000D02*
X167015000Y-76125000D01*
X166990000Y-81120000D02*
X166995000Y-81125000D01*
X171000000Y-66725000D02*
X171000000Y-67900000D01*
X169125000Y-86000000D02*
X169000000Y-86125000D01*
X170937500Y-71125000D02*
X171062500Y-71000000D01*
X171062500Y-86000000D02*
X169125000Y-86000000D01*
X165990000Y-81120000D02*
X166990000Y-81120000D01*
X166000000Y-76120000D02*
X167010000Y-76120000D01*
%TO.N,+2V8*%
X170500000Y-110687500D02*
X166977500Y-110687500D01*
X170675000Y-110862500D02*
X170500000Y-110687500D01*
X166977500Y-110687500D02*
X166960000Y-110670000D01*
D26*
X99883412Y-74560474D02*
X99893886Y-74550000D01*
D25*
X170500000Y-114500000D02*
X170000000Y-115000000D01*
D26*
X101066201Y-74550000D02*
X101116200Y-74500001D01*
D25*
X170500000Y-110687500D02*
X170500000Y-114500000D01*
D26*
X99893886Y-74550000D02*
X101066201Y-74550000D01*
D25*
X172862500Y-110862500D02*
X170675000Y-110862500D01*
D26*
X99883412Y-74716588D02*
X99883412Y-74560474D01*
%TO.N,/KBD_ROW6*%
X153510000Y-52000000D02*
X130210001Y-75299999D01*
X130210001Y-75299999D02*
X103296200Y-75299999D01*
D25*
%TO.N,/TP_SHUTDOWN*%
X174175000Y-71950000D02*
X175000000Y-72775000D01*
X175000000Y-72775000D02*
X185755000Y-72775000D01*
X185755000Y-72775000D02*
X187900000Y-74920000D01*
X172937500Y-71950000D02*
X174175000Y-71950000D01*
D26*
%TO.N,/KBD_COL6*%
X117053152Y-68553152D02*
X117163199Y-68663199D01*
X102029000Y-69657317D02*
X102480000Y-69206317D01*
X102029000Y-69832157D02*
X102029000Y-69657317D01*
X101361156Y-70500001D02*
X102029000Y-69832157D01*
X107226801Y-68553152D02*
X117053152Y-68553152D01*
X101116200Y-70500001D02*
X101361156Y-70500001D01*
D25*
%TO.N,/TP_RESET*%
X174125000Y-91950000D02*
X175000000Y-92825000D01*
X175000000Y-92825000D02*
X180155000Y-92825000D01*
X180155000Y-92825000D02*
X187900000Y-85080000D01*
X172875000Y-91950000D02*
X174125000Y-91950000D01*
D26*
%TO.N,/KBD_ROW3*%
X123790000Y-74100000D02*
X103296200Y-74099999D01*
X145890000Y-52000000D02*
X123790000Y-74100000D01*
%TO.N,/KBD_COL2*%
X101116200Y-72100000D02*
X102271228Y-72100000D01*
X105286801Y-70546801D02*
X107286801Y-70546801D01*
X107286801Y-70546801D02*
X107320000Y-70580000D01*
X102271228Y-72100000D02*
X102480000Y-71891228D01*
%TO.N,/KBD_ROW5*%
X150970000Y-52000000D02*
X128070000Y-74900000D01*
X128070000Y-74900000D02*
X103296200Y-74900000D01*
%TO.N,/KBD_COL3*%
X105801801Y-70031801D02*
X108411801Y-70031801D01*
X108411801Y-70031801D02*
X108458199Y-70078199D01*
X101116200Y-71700001D02*
X101999999Y-71700001D01*
X101999999Y-71700001D02*
X102480000Y-71220000D01*
%TO.N,/KBD_COL1*%
X102009999Y-72499999D02*
X101116200Y-72499999D01*
X104776801Y-71056801D02*
X106113199Y-71056801D01*
X102270000Y-72760000D02*
X102009999Y-72499999D01*
X106113199Y-71056801D02*
X106150000Y-71020000D01*
%TO.N,/KBD_ROW1*%
X119510000Y-73300000D02*
X103296200Y-73300000D01*
X140810000Y-52000000D02*
X119510000Y-73300000D01*
%TO.N,/KBD_COL4*%
X101116200Y-71299999D02*
X101728773Y-71299999D01*
X111232702Y-69482702D02*
X111248199Y-69498199D01*
X101728773Y-71299999D02*
X102480000Y-70548772D01*
X106350901Y-69482702D02*
X111232702Y-69482702D01*
%TO.N,/KBD_ROW4*%
X148430000Y-52000000D02*
X125929999Y-74500001D01*
X125929999Y-74500001D02*
X103296200Y-74500001D01*
%TO.N,/KBD_COL0*%
X101116200Y-72900001D02*
X101700001Y-72900001D01*
X101700001Y-72900001D02*
X102200000Y-73400000D01*
%TO.N,/KBD_COL5*%
X114323152Y-69003152D02*
X114350000Y-69030000D01*
X101116200Y-70900000D02*
X101457545Y-70900000D01*
X106830450Y-69003152D02*
X114323152Y-69003152D01*
X101457545Y-70900000D02*
X102480000Y-69877545D01*
%TO.N,/KBD_ROW0*%
X117340000Y-72930000D02*
X138270000Y-52000000D01*
X103296200Y-72900001D02*
X103326199Y-72930000D01*
X103326199Y-72930000D02*
X117340000Y-72930000D01*
%TO.N,/KBD_ROW2*%
X103296200Y-73700000D02*
X121650000Y-73700000D01*
X121650000Y-73700000D02*
X143350000Y-52000000D01*
%TO.N,/bbq20kbd_connector/TP_SHUTDOWN_1V8*%
X166000000Y-72830000D02*
X166050000Y-72780000D01*
D25*
X171062500Y-72900000D02*
X169125000Y-72900000D01*
D26*
X168995000Y-72780000D02*
X169000000Y-72775000D01*
D25*
X169125000Y-72900000D02*
X169000000Y-72775000D01*
D26*
X100649999Y-75299999D02*
X101116200Y-75299999D01*
X100649998Y-75300000D02*
X100649999Y-75299999D01*
X100100000Y-75790000D02*
X100590000Y-75300000D01*
X100590000Y-75300000D02*
X100649998Y-75300000D01*
X166050000Y-72780000D02*
X168995000Y-72780000D01*
%TO.N,/bbq20kbd_connector/TP_SCL_1V8*%
X168595000Y-82370000D02*
X169000000Y-82775000D01*
X101897407Y-76100000D02*
X102380301Y-75617106D01*
D25*
X169000000Y-82775000D02*
X170887500Y-82775000D01*
X170887500Y-82775000D02*
X171062500Y-82950000D01*
D26*
X101116200Y-76100000D02*
X101897407Y-76100000D01*
X113970000Y-82370000D02*
X168595000Y-82370000D01*
X108620000Y-76720000D02*
X108620000Y-77020000D01*
X108620000Y-77020000D02*
X113970000Y-82370000D01*
D25*
%TO.N,/TP_SDA*%
X175000000Y-77775000D02*
X176365000Y-79140000D01*
X176365000Y-79140000D02*
X186220000Y-79140000D01*
X174175000Y-76950000D02*
X175000000Y-77775000D01*
X172937500Y-76950000D02*
X174175000Y-76950000D01*
X186220000Y-79140000D02*
X187900000Y-77460000D01*
%TO.N,/TP_MOTION*%
X173937500Y-87950000D02*
X172937500Y-86950000D01*
X175000000Y-87950000D02*
X182490000Y-87950000D01*
X175000000Y-87950000D02*
X173937500Y-87950000D01*
X182490000Y-87950000D02*
X187900000Y-82540000D01*
%TO.N,/TP_SCL*%
X185075000Y-82825000D02*
X187900000Y-80000000D01*
X175000000Y-82825000D02*
X185075000Y-82825000D01*
X172937500Y-82000000D02*
X174175000Y-82000000D01*
X174175000Y-82000000D02*
X175000000Y-82825000D01*
D26*
%TO.N,/MIC*%
X103296200Y-76499999D02*
X106170001Y-76499999D01*
X106170001Y-76499999D02*
X106180000Y-76490000D01*
D25*
%TO.N,/KBD_BKL*%
X175000000Y-96825000D02*
X187825000Y-96825000D01*
X187825000Y-96825000D02*
X188000000Y-97000000D01*
X174875000Y-96950000D02*
X175000000Y-96825000D01*
X172937500Y-96950000D02*
X174875000Y-96950000D01*
%TO.N,/bbq20kbd_connector/TP_SDA_1V8*%
X171062500Y-77900000D02*
X169125000Y-77900000D01*
D26*
X167345000Y-79430000D02*
X169000000Y-77775000D01*
D25*
X169125000Y-77900000D02*
X169000000Y-77775000D01*
D26*
X101590299Y-75700001D02*
X102380300Y-74910000D01*
X108700000Y-75930000D02*
X112200000Y-79430000D01*
X112200000Y-79430000D02*
X167345000Y-79430000D01*
X101116200Y-75700001D02*
X101590299Y-75700001D01*
%TO.N,/bbq20kbd_connector/TP_MOTION_1V8*%
X102289998Y-76330000D02*
X102119999Y-76499999D01*
X114666446Y-86863554D02*
X115577892Y-87775000D01*
X102420000Y-76330000D02*
X102289998Y-76330000D01*
X115577892Y-87775000D02*
X169000000Y-87775000D01*
D25*
X171062500Y-87900000D02*
X171062500Y-87817500D01*
X171100000Y-87780000D02*
X171095000Y-87775000D01*
D26*
X102119999Y-76499999D02*
X101116200Y-76499999D01*
D25*
X171062500Y-87817500D02*
X171100000Y-87780000D01*
X171095000Y-87775000D02*
X169000000Y-87775000D01*
D26*
%TO.N,/bbq20kbd_connector/TP_RESET_1V8*%
X119815000Y-92825000D02*
X169000000Y-92825000D01*
X100630002Y-76899998D02*
X100260000Y-77270000D01*
X118790000Y-91800000D02*
X119815000Y-92825000D01*
D25*
X171000000Y-92900000D02*
X169075000Y-92900000D01*
D26*
X101116200Y-76899998D02*
X100630002Y-76899998D01*
D25*
X169075000Y-92900000D02*
X169000000Y-92825000D01*
D26*
%TO.N,/bbq20kbd_connector/BKL*%
X103296200Y-72499999D02*
X105950001Y-72499999D01*
X169320000Y-95990000D02*
X169330000Y-96000000D01*
X169000000Y-95990000D02*
X169320000Y-95990000D01*
X169330000Y-96000000D02*
X171062500Y-96000000D01*
X105950001Y-72499999D02*
X106020000Y-72430000D01*
%TD*%
M02*
