%TF.GenerationSoftware,KiCad,Pcbnew,9.0.2*%
%TF.CreationDate,2025-07-03T12:00:23+02:00*%
%TF.ProjectId,gp-bbq20kbd-breakout-board,67702d62-6271-4323-906b-62642d627265,rev?*%
%TF.SameCoordinates,Original*%
%TF.FileFunction,Profile,NP*%
%FSLAX46Y46*%
G04 Gerber Fmt 4.6, Leading zero omitted, Abs format (unit mm)*
G04 Created by KiCad (PCBNEW 9.0.2) date 2025-07-03 12:00:23*
%MOMM*%
%LPD*%
G01*
G04 APERTURE LIST*
%TA.AperFunction,Profile*%
%ADD10C,0.050000*%
%TD*%
G04 APERTURE END LIST*
D10*
X99000000Y-81000000D02*
X99000000Y-66000000D01*
X90000000Y-51000000D02*
G75*
G02*
X91000000Y-50000000I1000000J0D01*
G01*
X190000000Y-124000000D02*
G75*
G02*
X189000000Y-125000000I-1000000J0D01*
G01*
X90000000Y-51000000D02*
X90000000Y-124000000D01*
X96000000Y-61500000D02*
G75*
G02*
X96500000Y-61000000I500000J0D01*
G01*
X99000000Y-66000000D02*
X96500000Y-66000000D01*
X189000000Y-50000000D02*
G75*
G02*
X190000000Y-51000000I0J-1000000D01*
G01*
X91000000Y-125000000D02*
X188990305Y-125000000D01*
X110500000Y-61000000D02*
X96500000Y-61000000D01*
X190000000Y-51000000D02*
X190000000Y-124000000D01*
X111000000Y-64000000D02*
X111000000Y-61500000D01*
X96000000Y-64000000D02*
X111000000Y-64000000D01*
X91000000Y-50000000D02*
X189000000Y-50000000D01*
X96000000Y-66500000D02*
X96000000Y-80500000D01*
X91000000Y-125000000D02*
G75*
G02*
X90000000Y-124000000I0J1000000D01*
G01*
X96000000Y-66500000D02*
G75*
G02*
X96500000Y-66000000I500000J0D01*
G01*
X96000000Y-61500000D02*
X96000000Y-64000000D01*
X110500000Y-61000000D02*
G75*
G02*
X111000000Y-61500000I0J-500000D01*
G01*
X96500000Y-81000000D02*
G75*
G02*
X96000000Y-80500000I0J500000D01*
G01*
X96500000Y-81000000D02*
X99000000Y-81000000D01*
M02*
